<?xml version="1.0" standalone="no"?>
<!DOCTYPE svg PUBLIC "-//W3C//DTD SVG 20010904//EN"
 "http://www.w3.org/TR/2001/REC-SVG-20010904/DTD/svg10.dtd">
<svg version="1.0" xmlns="http://www.w3.org/2000/svg"
 width="128.000000pt" height="128.000000pt" viewBox="0 0 128.000000 128.000000"
 preserveAspectRatio="xMidYMid meet">
<metadata>
Created by potrace 1.14, written by Peter Selinger 2001-2017
</metadata>
<g transform="translate(0.000000,128.000000) scale(0.100000,-0.100000)"
fill="#000000" stroke="none">
<path d="M488 1261 c-217 -56 -388 -217 -459 -433 -27 -79 -33 -236 -14 -326
14 -63 69 -187 102 -231 96 -124 189 -192 334 -242 83 -28 238 -35 329 -13
143 33 284 126 370 242 48 65 102 176 115 237 14 66 14 221 0 282 -53 227
-223 409 -445 478 -81 25 -248 28 -332 6z"/>
</g>
</svg>
